<?xml version="1.0" encoding="utf-8"?><!DOCTYPE svg PUBLIC "-//W3C//DTD SVG 1.1//EN" "http://www.w3.org/Graphics/SVG/1.1/DTD/svg11.dtd"><svg version="1.1" xmlns="http://www.w3.org/2000/svg" xmlns:xlink="http://www.w3.org/1999/xlink" x="0px" y="0px" width="148px" height="28px" viewBox="0 0 148 28" xml:space="preserve"><path fill-rule="evenodd" clip-rule="evenodd" fill="#A1A1A1" d="M8.5 12.4h-6V6.8H0v14h2.6v-6h6v6H11v-14H8.6v5.6zm21.2 8.4h2.6V6.4l-2.6 1.2v13.2zm9.2-2c-.3 0-.5 0-.6-.2l-.2-.6v-5h2.3v-2.4h-2.3V6.4l-2.6 1.2v3H34V13h1.6v6.4l.6 1 .7.5h2.3c.4 0 .7-.2 1-.4l.3-2.2-1 .3H39zm11.2-7l-.8-.8-.8-.4c-.3 0-.7 0-1-.2h-2.2c-.4 0-.8.2-1 .3-.5 0-.8.3-1 .4l-1 .6 1 2 1.4-.7c.5-.3 1-.3 1.6-.3.6 0 1 0 1.4.3.3.3.5.7.5 1.3v.5c-.3 0-.7-.3-1-.4h-2.9c-.5.2-1 .4-1.3.7l-1 1.2c-.2.4-.3 1-.3 1.5 0 .6 0 1 .2 1.5.2.4.4.7.8 1 .3.3.7.5 1.2.7h2.4c.2 0 .5 0 .7-.2l.6-.3.3-.4v.8h2.5v-6.5-1.5l-.6-1zm-2 6.2l-.8.5-1.3.3c-.4 0-.8 0-1-.3-.4-.2-.6-.5-.6-.8 0-.2 0-.4.2-.5 0-.2.2-.3.4-.4l.6-.2h1.8l1 .3v1zM61 11.2c-.3-.3-.7-.5-1-.6-.6-.2-1-.2-1.4-.2-.6 0-1 0-1.6.3-.5.2-.8.5-1.2 1v-1h-2.6v10h2.6v-6c0-.2 0-.5.2-.8l.4-.7.6-.3h1.5c.2 0 .4.2.5.3l.4.7.2.8v6h2.6v-6.4c0-.8 0-1.4-.4-2-.2-.4-.4-.8-.8-1.2zm12-.6h-3l-2.7 2.8v-7l-2.6 1.2v13.2h2.6v-4.4l1-1 2.7 5.4h3l-4-7.2 3-3zM94 6.4l-2.5 1.2v13.2h2.5V6.4zm5 .4l-.3-.3H97.2c-.2 0-.4.2-.5.3l-.3.5-.2.6s0 .3.2.5c0 .2.2.3.3.5s.3.2.5.3h1.1L99 9l.3-.5V8v-.7c0-.2-.2-.3-.4-.5zm-2.2 14c0 .4 0 .7-.2 1l-.5.4-1 .5-1.3.3 1.3 2h.8l.8-.4c.3 0 .5-.3.8-.4s.5-.4.8-.7l.5-.7c0-.3.2-.5.3-.8v-.8c.2-.3.2-.6.2-1v-9.6h-2.6V21zm13-9l-1-.8-.7-.4c-.4 0-.8 0-1-.2h-2.3c-.4 0-.8.2-1 .3-.5 0-.8.3-1 .4l-1 .6 1 2 1.4-.7c.6-.3 1-.3 1.7-.3.6 0 1 0 1.4.3s.6.7.6 1.3v.5c-.3 0-.7-.3-1-.4h-2.8c-.5.2-1 .4-1.3.7l-1 1.2c-.2.4-.3 1-.3 1.5 0 .6 0 1 .3 1.5l.8 1c.3.3.7.5 1.2.7h2.2c.3 0 .6 0 .8-.2l.6-.3.4-.4v.8h2.5v-6.5-1.5l-.5-1zm-2 6.2l-1 .5-1.2.3c-.5 0-1 0-1.2-.3-.3-.2-.5-.5-.5-.8 0-.2 0-.4.2-.5 0-.2 0-.3.3-.4l.6-.2h1.7l1 .3v1zm13.4-7.4h-3l-3 2.8v-7l-2.5 1.2v13.2h2.6v-4.4l1-1 3 5.4h2.8l-3.8-7.2 3-3zm4.6 7.7l-.6-.4-.6-.2h-.7l-.5.5c-.2 0-.3.3-.4.5V20c0 .3.2.5.4.6 0 .2.3.3.5.4H125c.2 0 .4-.2.6-.4l.3-.5v-.6-.6l-.4-.5zm10-7c-.3-.4-.7-.6-1-.7-.5-.2-1-.2-1.4-.2-.6 0-1 0-1.6.3-.4.2-.8.5-1 1V6.3l-2.7 1.2v13.2h2.5v-6-1c.2 0 .4-.3.5-.5s.4-.2.7-.3h1.4c.3 0 .5.2.7.3l.4.7.2.8v6h2.6v-6.4c0-.8 0-1.4-.3-2l-.8-1.2zm10-.7v6c0 .4-.2.7-.3 1l-.4.5-.7.5H143c-.4 0-.5-.2-.7-.4-.2 0-.3-.2-.4-.5-.2-.2-.2-.5-.2-1v-6h-2.6v6.6c0 .8 0 1.5.3 2 .2.5.5 1 .8 1.2l1.2.7h1.3c.5 0 1 0 1.5-.2s1-.5 1.2-1v1h2.6V10.6h-2.5z"/><path fill-rule="evenodd" clip-rule="evenodd" fill="#94B73A" d="M20.3 6.6c-4.4 0-8 3.5-8 8 0 4.6 4 9.3 7 12.6 0 0 .4.6 1 .6s1-.6 1-.6c3-3.3 7-8 7-12.7 0-4.4-3.6-8-8-8zM21 24s-.3.5-.7.5c-.5 0-.8-.4-.8-.4-2-2.3-5-6-5-9.3 0-3.3 2.5-6 5.8-6 3.2 0 6 2.7 6 6 0 3.4-3 7-5.2 9.4zM83 .3s-.5-.6-1-.6c-.7 0-1 .6-1 .6-3 3.3-7 8-7 12.7 0 4.4 3.6 8 8 8s8-3.6 8-8c0-4.7-4-9.4-7-12.7zm-1 18.4c-3.3 0-6-2.6-6-6 0-3.3 3-7 5-9.3 0 0 .5-.4 1-.4.4 0 .7.4.7.4 2.2 2.4 5 6 5 9.4 0 3.3-2.5 6-5.8 6z"/></svg>